<svg xmlns="http://www.w3.org/2000/svg" viewBox="0 0 124 124">
  <path fill="#E01E5A" d="M26.4 78.1c0 7.1-5.8 12.9-12.9 12.9S.6 85.2.6 78.1s5.8-12.9 12.9-12.9h12.9v12.9zm6.5 0c0-7.1 5.8-12.9 12.9-12.9s12.9 5.8 12.9 12.9v32.3c0 7.1-5.8 12.9-12.9 12.9s-12.9-5.8-12.9-12.9V78.1z"/>
  <path fill="#36C5F0" d="M45.8 26.4c-7.1 0-12.9-5.8-12.9-12.9S38.7.6 45.8.6s12.9 5.8 12.9 12.9v12.9H45.8zm0 6.5c7.1 0 12.9 5.8 12.9 12.9s-5.8 12.9-12.9 12.9H13.5c-7.1 0-12.9-5.8-12.9-12.9s5.8-12.9 12.9-12.9h32.3z"/>
  <path fill="#2EB67D" d="M97.2 45.8c0-7.1 5.8-12.9 12.9-12.9s12.9 5.8 12.9 12.9-5.8 12.9-12.9 12.9H97.2V45.8zm-6.5 0c0 7.1-5.8 12.9-12.9 12.9s-12.9-5.8-12.9-12.9V13.5c0-7.1 5.8-12.9 12.9-12.9s12.9 5.8 12.9 12.9v32.3z"/>
  <path fill="#ECB22E" d="M78.1 97.2c7.1 0 12.9 5.8 12.9 12.9s-5.8 12.9-12.9 12.9-12.9-5.8-12.9-12.9V97.2h12.9zm0-6.5c-7.1 0-12.9-5.8-12.9-12.9s5.8-12.9 12.9-12.9h32.3c7.1 0 12.9 5.8 12.9 12.9s-5.8 12.9-12.9 12.9H78.1z"/>
</svg>